# xmcd
#
# Track frame offsets:
#	150
#	9034
#	21297
#	43266
#	58345
#	70270
#	81824
#	95766
#	109809
#	120473
#
# Disc length: 1771 seconds
#
# Revision: 2
# Processed by: cddbd v1.4PL0 Copyright (c) Steve Scherf et al.
# Submitted via: audiograbber 1.81.02
#
DISCID=8106e90a
DTITLE=Willie Nelson - Good Hearted Woman
DYEAR=2000
DGENRE=Country
TTITLE0=Waiting Time
TTITLE1=Seven Spanish Angels
TTITLE2=City Of New Orleans
TTITLE3=Face Of A Fighter
TTITLE4=I Hope So
TTITLE5=I'll Stay Around
TTITLE6=Blue Eyes Crying In The Rain
TTITLE7=Good Hearted Woman
TTITLE8=Blame It On The Times
TTITLE9=The Shelter Of Your Arms
EXTD=YEAR: 2000 ID3G:   2
EXTT0=
EXTT1=
EXTT2=
EXTT3=
EXTT4=
EXTT5=
EXTT6=
EXTT7=
EXTT8=
EXTT9=
PLAYORDER=
